<svg width="25" height="25" viewBox="0 0 25 25" fill="none" xmlns="http://www.w3.org/2000/svg">
<path d="M15.5002 6.32178H9.50024C7.84339 6.32178 6.50024 7.66492 6.50024 9.32178V15.3218C6.50024 16.9786 7.84339 18.3218 9.50024 18.3218H15.5002C17.1571 18.3218 18.5002 16.9786 18.5002 15.3218V9.32178C18.5002 7.66492 17.1571 6.32178 15.5002 6.32178Z" stroke="#4F5255" stroke-linecap="round" stroke-linejoin="round"/>
<path d="M14.9003 11.9437C14.9743 12.4431 14.889 12.953 14.6565 13.4011C14.424 13.8492 14.0562 14.2126 13.6052 14.4395C13.1543 14.6665 12.6433 14.7455 12.1449 14.6653C11.6465 14.5851 11.1861 14.3498 10.8292 13.9928C10.4722 13.6359 10.2369 13.1754 10.1567 12.677C10.0765 12.1786 10.1555 11.6677 10.3825 11.2167C10.6094 10.7658 10.9728 10.398 11.4209 10.1655C11.8689 9.93296 12.3789 9.84767 12.8783 9.92171C13.3876 9.99724 13.8592 10.2346 14.2233 10.5987C14.5874 10.9628 14.8247 11.4344 14.9003 11.9437Z" stroke="#4F5255" stroke-linecap="round" stroke-linejoin="round"/>
<path d="M15.8002 9.02173H15.8062" stroke="#4F5255" stroke-linecap="round" stroke-linejoin="round"/>
</svg>
