<svg width="21" height="13" viewBox="0 0 21 13" fill="none" xmlns="http://www.w3.org/2000/svg">
<path d="M20.5003 6.32177C20.5003 9.62336 17.8336 12.3218 14.5003 12.3218C11.1987 12.3218 8.50031 9.62336 8.50031 6.32177C8.50031 3.02019 11.167 0.321777 14.4686 0.321777C17.8336 0.321777 20.5003 3.02019 20.5003 6.32177Z" fill="#FFB600"/>
<path d="M14.5003 0.321777C17.8019 0.321777 20.5003 3.02019 20.5003 6.32177C20.5003 9.62336 17.8336 12.3218 14.5003 12.3218C11.1987 12.3218 8.50031 9.62336 8.50031 6.32177" fill="#F7981D"/>
<path d="M14.5003 0.321777C17.8019 0.321777 20.5003 3.02019 20.5003 6.32177C20.5003 9.62336 17.8336 12.3218 14.5003 12.3218" fill="#FF8500"/>
<path d="M6.43675 0.321777C3.16691 0.353523 0.500244 3.02019 0.500244 6.32177C0.500244 9.62336 3.16691 12.3218 6.50024 12.3218C8.0558 12.3218 9.45263 11.7186 10.532 10.7662C10.7542 10.5757 10.9447 10.3535 11.1352 10.1313H9.89707C9.73834 9.94082 9.57961 9.7186 9.45263 9.52812H11.5796C11.7066 9.33765 11.8336 9.11542 11.9288 8.8932H9.10342C9.00818 8.70273 8.91294 8.4805 8.84945 8.25828H12.151C12.3415 7.65511 12.4685 7.02019 12.4685 6.35352C12.4685 5.90908 12.405 5.49638 12.3415 5.08368H8.65897C8.69072 4.86146 8.75421 4.67098 8.81771 4.44876H12.1193C12.0558 4.22654 11.9606 4.00432 11.8653 3.81384H9.07167C9.16691 3.59162 9.2939 3.40114 9.42088 3.17892H11.5479C11.4209 2.9567 11.2621 2.73447 11.0717 2.544H9.89707C10.0875 2.32178 10.278 2.1313 10.5002 1.94082C9.45263 0.956698 8.02405 0.385269 6.4685 0.385269C6.4685 0.321777 6.4685 0.321777 6.43675 0.321777Z" fill="#FF5050"/>
<path d="M0.500244 6.32164C0.500244 9.62322 3.16691 12.3216 6.50024 12.3216C8.0558 12.3216 9.45263 11.7185 10.532 10.7661C10.7542 10.5756 10.9447 10.3534 11.1352 10.1312H9.89707C9.73834 9.94068 9.57961 9.71846 9.45263 9.52799H11.5796C11.7066 9.33751 11.8336 9.11529 11.9288 8.89307H9.10342C9.00818 8.70259 8.91294 8.48037 8.84945 8.25814H12.151C12.3415 7.65497 12.4685 7.02005 12.4685 6.35338C12.4685 5.90894 12.405 5.49624 12.3415 5.08354H8.65897C8.69072 4.86132 8.75421 4.67084 8.81771 4.44862H12.1193C12.0558 4.2264 11.9606 4.00418 11.8653 3.8137H9.07167C9.16691 3.59148 9.2939 3.401 9.42088 3.17878H11.5479C11.4209 2.95656 11.2621 2.73434 11.0717 2.54386H9.89707C10.0875 2.32164 10.278 2.13116 10.5002 1.94069C9.45263 0.95656 8.02405 0.385132 6.4685 0.385132H6.43675" fill="#E52836"/>
<path d="M6.50026 12.3218C8.05581 12.3218 9.45264 11.7186 10.532 10.7662C10.7542 10.5757 10.9447 10.3535 11.1352 10.1313H9.89708C9.73835 9.94081 9.57962 9.71858 9.45264 9.52811H11.5796C11.7066 9.33763 11.8336 9.11541 11.9288 8.89319H9.10343C9.0082 8.70271 8.91296 8.48049 8.84947 8.25827H12.1511C12.3415 7.65509 12.4685 7.02017 12.4685 6.35351C12.4685 5.90906 12.405 5.49636 12.3415 5.08366H8.65899C8.69074 4.86144 8.75423 4.67097 8.81772 4.44874H12.1193C12.0558 4.22652 11.9606 4.0043 11.8653 3.81382H9.07169C9.16693 3.5916 9.29391 3.40113 9.42089 3.1789H11.5479C11.4209 2.95668 11.2622 2.73446 11.0717 2.54398H9.89708C10.0876 2.32176 10.278 2.13129 10.5003 1.94081C9.45264 0.956683 8.02407 0.385254 6.46851 0.385254H6.43677" fill="#CB2026"/>
<path d="M8.6273 7.8459L8.72254 7.30621C8.69079 7.30621 8.6273 7.33796 8.56381 7.33796C8.34159 7.33796 8.30984 7.21097 8.34159 7.14748L8.53206 6.03637H8.88127L8.97651 5.4332H8.65905L8.72254 5.05225H8.08762C8.08762 5.05225 7.70667 7.14748 7.70667 7.40145C7.70667 7.7824 7.92889 7.94113 8.2146 7.94113C8.40508 7.94113 8.56381 7.87764 8.6273 7.8459Z" fill="white"/>
<path d="M8.84949 6.82956C8.84949 7.71845 9.45266 7.94067 9.9606 7.94067C10.4368 7.94067 10.6273 7.84543 10.6273 7.84543L10.7542 7.24226C10.7542 7.24226 10.405 7.40099 10.0876 7.40099C9.38917 7.40099 9.51615 6.89305 9.51615 6.89305H10.8177C10.8177 6.89305 10.913 6.48036 10.913 6.32162C10.913 5.90893 10.6908 5.40099 9.99234 5.40099C9.32568 5.3375 8.84949 6.03591 8.84949 6.82956ZM9.9606 5.90893C10.3098 5.90893 10.2463 6.32162 10.2463 6.35337H9.5479C9.5479 6.32162 9.61139 5.90893 9.9606 5.90893Z" fill="white"/>
<path d="M13.9924 7.84548L14.1194 7.14706C14.1194 7.14706 13.8019 7.30579 13.5797 7.30579C13.1352 7.30579 12.9448 6.95659 12.9448 6.57564C12.9448 5.81373 13.3257 5.40103 13.7701 5.40103C14.0876 5.40103 14.3416 5.59151 14.3416 5.59151L14.4368 4.92484C14.4368 4.92484 14.0559 4.76611 13.7067 4.76611C12.9765 4.76611 12.2463 5.40103 12.2463 6.60738C12.2463 7.40103 12.6273 7.94071 13.3892 7.94071C13.6432 7.94071 13.9924 7.84548 13.9924 7.84548Z" fill="white"/>
<path d="M5.13518 5.3374C4.69074 5.3374 4.37328 5.46439 4.37328 5.46439L4.27804 6.00407C4.27804 6.00407 4.56375 5.87708 4.97645 5.87708C5.19867 5.87708 5.38915 5.90883 5.38915 6.09931C5.38915 6.22629 5.3574 6.25804 5.3574 6.25804C5.3574 6.25804 5.16693 6.25804 5.07169 6.25804C4.53201 6.25804 3.92883 6.48026 3.92883 7.21042C3.92883 7.78185 4.30979 7.90883 4.53201 7.90883C4.97645 7.90883 5.16693 7.62312 5.19867 7.62312L5.16693 7.87708H5.73836L5.99232 6.13105C5.99232 5.36915 5.3574 5.3374 5.13518 5.3374ZM5.26217 6.76597C5.26217 6.86121 5.19867 7.36915 4.81772 7.36915C4.62725 7.36915 4.56375 7.21042 4.56375 7.11518C4.56375 6.95645 4.65899 6.73423 5.13518 6.73423C5.23042 6.76597 5.26217 6.76597 5.26217 6.76597Z" fill="white"/>
<path d="M6.59552 7.90933C6.75425 7.90933 7.5479 7.94107 7.5479 7.08393C7.5479 6.29028 6.78599 6.44901 6.78599 6.13155C6.78599 5.97282 6.91298 5.90933 7.1352 5.90933C7.23044 5.90933 7.57964 5.94107 7.57964 5.94107L7.67488 5.36964C7.67488 5.36964 7.45266 5.30615 7.07171 5.30615C6.59552 5.30615 6.11933 5.49663 6.11933 6.13155C6.11933 6.86171 6.91298 6.79822 6.91298 7.08393C6.91298 7.27441 6.69075 7.30615 6.53202 7.30615C6.24631 7.30615 5.96059 7.21091 5.96059 7.21091L5.86536 7.78234C5.8971 7.84583 6.05583 7.90933 6.59552 7.90933Z" fill="white"/>
<path d="M19.2622 4.82959L19.1352 5.68673C19.1352 5.68673 18.8812 5.36927 18.532 5.36927C17.9606 5.36927 17.4526 6.06768 17.4526 6.89308C17.4526 7.40102 17.7066 7.9407 18.2463 7.9407C18.6272 7.9407 18.8495 7.68673 18.8495 7.68673L18.8177 7.90895H19.4526L19.9288 4.86134L19.2622 4.82959ZM18.9764 6.51213C18.9764 6.86134 18.8177 7.30578 18.4685 7.30578C18.2463 7.30578 18.1193 7.1153 18.1193 6.79784C18.1193 6.28991 18.3415 5.97245 18.6272 5.97245C18.8495 5.97245 18.9764 6.13118 18.9764 6.51213Z" fill="white"/>
<path d="M1.67489 7.87721L2.05584 5.59149L2.11934 7.87721H2.56378L3.38918 5.59149L3.03997 7.87721H3.70664L4.21457 4.82959H3.16695L2.53203 6.70261L2.50029 4.82959H1.57965L1.07172 7.87721H1.67489Z" fill="white"/>
<path d="M11.5161 7.87707C11.7066 6.82945 11.7383 5.97231 12.1828 6.13104C12.2463 5.71834 12.3415 5.55961 12.405 5.40088C12.405 5.40088 12.3732 5.40088 12.278 5.40088C11.9923 5.40088 11.7701 5.78183 11.7701 5.78183L11.8336 5.43263H11.2304L10.8177 7.90881H11.5161V7.87707Z" fill="white"/>
<path d="M15.4527 5.3374C15.0082 5.3374 14.6908 5.46439 14.6908 5.46439L14.5955 6.00407C14.5955 6.00407 14.8813 5.87708 15.294 5.87708C15.5162 5.87708 15.7067 5.90883 15.7067 6.09931C15.7067 6.22629 15.6749 6.25804 15.6749 6.25804C15.6749 6.25804 15.4844 6.25804 15.3892 6.25804C14.8495 6.25804 14.2463 6.48026 14.2463 7.21042C14.2463 7.78185 14.6273 7.90883 14.8495 7.90883C15.294 7.90883 15.4844 7.62312 15.5162 7.62312L15.4844 7.87708H16.0559L16.3098 6.13105C16.3416 5.36915 15.6749 5.3374 15.4527 5.3374ZM15.6114 6.76597C15.6114 6.86121 15.5479 7.36915 15.167 7.36915C14.9765 7.36915 14.913 7.21042 14.913 7.11518C14.913 6.95645 15.0082 6.73423 15.4844 6.73423C15.5797 6.76597 15.5797 6.76597 15.6114 6.76597Z" fill="white"/>
<path d="M16.8495 7.87707C17.04 6.82945 17.0717 5.97231 17.5161 6.13104C17.5796 5.71834 17.6749 5.55961 17.7384 5.40088C17.7384 5.40088 17.7066 5.40088 17.6114 5.40088C17.3257 5.40088 17.1034 5.78183 17.1034 5.78183L17.1669 5.43263H16.5638L16.1511 7.90881H16.8495V7.87707Z" fill="white"/>
<path d="M7.64313 7.40145C7.64313 7.7824 7.86535 7.94113 8.15106 7.94113C8.37329 7.94113 8.56376 7.87764 8.62725 7.8459L8.72249 7.30621C8.69075 7.30621 8.62725 7.33796 8.56376 7.33796C8.34154 7.33796 8.30979 7.21097 8.34154 7.14748L8.53202 6.03637H8.88122L8.97646 5.4332H8.659L8.72249 5.05225" fill="#DCE5E5"/>
<path d="M9.16693 6.82956C9.16693 7.71845 9.45265 7.94067 9.96058 7.94067C10.4368 7.94067 10.6272 7.84543 10.6272 7.84543L10.7542 7.24226C10.7542 7.24226 10.405 7.40099 10.0876 7.40099C9.38915 7.40099 9.51614 6.89305 9.51614 6.89305H10.8177C10.8177 6.89305 10.913 6.48036 10.913 6.32162C10.913 5.90893 10.6907 5.40099 9.99233 5.40099C9.32566 5.3375 9.16693 6.03591 9.16693 6.82956ZM9.96058 5.90893C10.3098 5.90893 10.3733 6.32162 10.3733 6.35337H9.54788C9.54788 6.32162 9.61138 5.90893 9.96058 5.90893Z" fill="#DCE5E5"/>
<path d="M13.9924 7.84548L14.1193 7.14706C14.1193 7.14706 13.8019 7.30579 13.5797 7.30579C13.1352 7.30579 12.9447 6.95659 12.9447 6.57564C12.9447 5.81373 13.3257 5.40103 13.7701 5.40103C14.0876 5.40103 14.3416 5.59151 14.3416 5.59151L14.4368 4.92484C14.4368 4.92484 14.0558 4.76611 13.7066 4.76611C12.9765 4.76611 12.5638 5.40103 12.5638 6.60738C12.5638 7.40103 12.6273 7.94071 13.3892 7.94071C13.6431 7.94071 13.9924 7.84548 13.9924 7.84548Z" fill="#DCE5E5"/>
<path d="M4.27804 6.0358C4.27804 6.0358 4.56375 5.90882 4.97645 5.90882C5.19867 5.90882 5.38915 5.94056 5.38915 6.13104C5.38915 6.25802 5.3574 6.28977 5.3574 6.28977C5.3574 6.28977 5.16693 6.28977 5.07169 6.28977C4.53201 6.28977 3.92883 6.51199 3.92883 7.24215C3.92883 7.81358 4.30979 7.94056 4.53201 7.94056C4.97645 7.94056 5.16693 7.65485 5.19867 7.65485L5.16693 7.90881H5.73836L5.99232 6.16278C5.99232 5.43262 5.3574 5.40088 5.10344 5.40088L4.27804 6.0358ZM5.57963 6.76596C5.57963 6.8612 5.19867 7.36913 4.81772 7.36913C4.62725 7.36913 4.56375 7.2104 4.56375 7.11516C4.56375 6.95643 4.65899 6.73421 5.13518 6.73421C5.23042 6.76596 5.57963 6.76596 5.57963 6.76596Z" fill="#DCE5E5"/>
<path d="M5.89716 7.84583C5.89716 7.84583 6.08763 7.90933 6.62731 7.90933C6.78604 7.90933 7.5797 7.94107 7.5797 7.08393C7.5797 6.29028 6.81779 6.44901 6.81779 6.13155C6.81779 5.97282 6.94477 5.90933 7.167 5.90933C7.26224 5.90933 7.61144 5.94107 7.61144 5.94107L7.70668 5.36964C7.70668 5.36964 7.48446 5.30615 7.1035 5.30615C6.62731 5.30615 6.46858 5.49663 6.46858 6.13155C6.46858 6.86171 6.94477 6.79822 6.94477 7.08393C6.94477 7.27441 6.72255 7.30615 6.56382 7.30615" fill="#DCE5E5"/>
<path d="M19.1352 5.68624C19.1352 5.68624 18.8812 5.36878 18.532 5.36878C17.9606 5.36878 17.7701 6.06719 17.7701 6.89258C17.7701 7.40052 17.7066 7.9402 18.2463 7.9402C18.6273 7.9402 18.8495 7.68624 18.8495 7.68624L18.8177 7.90846H19.4527L19.9289 4.86084L19.1352 5.68624ZM19.1035 6.51163C19.1035 6.86084 18.8177 7.30528 18.4685 7.30528C18.2463 7.30528 18.1193 7.11481 18.1193 6.79735C18.1193 6.28941 18.3416 5.97195 18.6273 5.97195C18.8495 5.97195 19.1035 6.13068 19.1035 6.51163Z" fill="#DCE5E5"/>
<path d="M1.67489 7.87721L2.05584 5.59149L2.11934 7.87721H2.56378L3.38918 5.59149L3.03997 7.87721H3.70664L4.21457 4.82959H3.42092L2.53203 6.70261L2.50029 4.82959H2.15108L1.07172 7.87721H1.67489Z" fill="#DCE5E5"/>
<path d="M10.8495 7.87707H11.5162C11.7066 6.82945 11.7384 5.97231 12.1828 6.13104C12.2463 5.71834 12.3416 5.55961 12.405 5.40088C12.405 5.40088 12.3733 5.40088 12.2781 5.40088C11.9923 5.40088 11.7701 5.78183 11.7701 5.78183L11.8336 5.43263" fill="#DCE5E5"/>
<path d="M14.5955 6.0358C14.5955 6.0358 14.8813 5.90882 15.294 5.90882C15.5162 5.90882 15.7067 5.94056 15.7067 6.13104C15.7067 6.25802 15.6749 6.28977 15.6749 6.28977C15.6749 6.28977 15.4844 6.28977 15.3892 6.28977C14.8495 6.28977 14.2463 6.51199 14.2463 7.24215C14.2463 7.81358 14.6273 7.94056 14.8495 7.94056C15.294 7.94056 15.4844 7.65485 15.5162 7.65485L15.4844 7.90881H16.0559L16.3098 6.16278C16.3098 5.43262 15.6749 5.40088 15.4209 5.40088L14.5955 6.0358ZM15.8971 6.76596C15.8971 6.8612 15.5162 7.36913 15.1352 7.36913C14.9448 7.36913 14.8813 7.2104 14.8813 7.11516C14.8813 6.95643 14.9765 6.73421 15.4527 6.73421C15.5797 6.76596 15.8971 6.76596 15.8971 6.76596Z" fill="#DCE5E5"/>
<path d="M16.1828 7.87707H16.8495C17.0399 6.82945 17.0717 5.97231 17.5161 6.13104C17.5796 5.71834 17.6749 5.55961 17.7384 5.40088C17.7384 5.40088 17.7066 5.40088 17.6114 5.40088C17.3257 5.40088 17.1034 5.78183 17.1034 5.78183L17.1669 5.43263" fill="#DCE5E5"/>
</svg>
