<svg width="47" height="13" viewBox="0 0 47 13" fill="none" xmlns="http://www.w3.org/2000/svg">
<path d="M36.059 3.45215H33.5764C33.4304 3.45215 33.2844 3.60122 33.2114 3.75028L32.1891 10.3092C32.1891 10.4583 32.2622 10.5328 32.4082 10.5328H33.7225C33.8685 10.5328 33.9415 10.4583 33.9415 10.3092L34.2336 8.4459C34.2336 8.29683 34.3796 8.14777 34.5987 8.14777H35.4018C37.0812 8.14777 38.0304 7.3279 38.2495 5.68816C38.3955 5.01736 38.2495 4.42109 37.9574 4.04842C37.5193 3.67575 36.8622 3.45215 36.059 3.45215ZM36.3511 5.91176C36.205 6.80616 35.5479 6.80616 34.8907 6.80616H34.4526L34.7447 5.09189C34.7447 5.01736 34.8177 4.94282 34.9638 4.94282H35.1098C35.5479 4.94282 35.986 4.94282 36.205 5.24096C36.3511 5.31549 36.3511 5.53909 36.3511 5.91176Z" fill="#139AD6"/>
<path d="M18.17 3.45264H15.6875C15.5414 3.45264 15.3954 3.6017 15.3224 3.75077L14.3002 10.3097C14.3002 10.4588 14.3732 10.5333 14.5192 10.5333H15.6875C15.8335 10.5333 15.9795 10.3843 16.0526 10.2352L16.3446 8.44639C16.3446 8.29732 16.4906 8.14826 16.7097 8.14826H17.5129C19.1922 8.14826 20.1414 7.32839 20.3605 5.68865C20.5065 5.01784 20.3605 4.42158 20.0684 4.04891C19.6303 3.67624 19.0462 3.45264 18.17 3.45264ZM18.4621 5.91225C18.316 6.80665 17.6589 6.80665 17.0018 6.80665H16.6367L16.9287 5.09238C16.9287 5.01784 17.0018 4.94331 17.1478 4.94331H17.2938C17.7319 4.94331 18.17 4.94331 18.3891 5.24144C18.4621 5.31598 18.5351 5.53958 18.4621 5.91225Z" fill="#263B80"/>
<path d="M25.6908 5.83706H24.5225C24.4495 5.83706 24.3035 5.91159 24.3035 5.98612L24.2305 6.35879L24.1575 6.20972C23.8654 5.83706 23.3543 5.68799 22.7702 5.68799C21.4559 5.68799 20.2876 6.73146 20.0686 8.1476C19.9225 8.89294 20.1416 9.56374 20.5067 10.0109C20.8717 10.4581 21.3829 10.6072 22.04 10.6072C23.1352 10.6072 23.7194 9.93641 23.7194 9.93641L23.6463 10.3091C23.6463 10.4581 23.7194 10.5327 23.8654 10.5327H24.9606C25.1067 10.5327 25.2527 10.3836 25.3257 10.2345L25.9829 6.06066C25.9098 5.98612 25.7638 5.83706 25.6908 5.83706ZM24.0114 8.22213C23.8654 8.89293 23.3543 9.41467 22.6241 9.41467C22.259 9.41467 21.967 9.2656 21.821 9.11654C21.6749 8.89294 21.6019 8.5948 21.6019 8.22213C21.6749 7.55133 22.259 7.02959 22.9162 7.02959C23.2813 7.02959 23.5003 7.17866 23.7194 7.32773C23.9384 7.55133 24.0114 7.924 24.0114 8.22213Z" fill="#263B80"/>
<path d="M43.5066 5.83706H42.3383C42.2653 5.83706 42.1193 5.91159 42.1193 5.98612L42.0463 6.35879L41.9733 6.20972C41.6812 5.83706 41.1701 5.68799 40.586 5.68799C39.2717 5.68799 38.1034 6.73146 37.8844 8.1476C37.7383 8.89294 37.9574 9.56374 38.3225 10.0109C38.6875 10.4581 39.1987 10.6072 39.8558 10.6072C40.951 10.6072 41.5352 9.93641 41.5352 9.93641L41.4621 10.3091C41.4621 10.4581 41.5352 10.5327 41.6812 10.5327H42.7764C42.9225 10.5327 43.0685 10.3836 43.1415 10.2345L43.7986 6.06066C43.7256 5.98612 43.6526 5.83706 43.5066 5.83706ZM41.8272 8.22213C41.6812 8.89293 41.1701 9.41467 40.4399 9.41467C40.0748 9.41467 39.7828 9.2656 39.6367 9.11654C39.4907 8.89294 39.4177 8.5948 39.4177 8.22213C39.4907 7.55133 40.0748 7.02959 40.732 7.02959C41.0971 7.02959 41.3161 7.17866 41.5352 7.32773C41.8272 7.55133 41.9002 7.924 41.8272 8.22213Z" fill="#139AD6"/>
<path d="M32.0431 5.8374H30.8019C30.6558 5.8374 30.5828 5.91194 30.5098 5.98647L28.9034 8.52061L28.1733 6.13554C28.1003 5.98647 28.0272 5.91194 27.8082 5.91194H26.6399C26.4939 5.91194 26.4209 6.061 26.4209 6.21007L27.7352 10.1604L26.4939 11.9492C26.4209 12.0982 26.4939 12.3218 26.6399 12.3218H27.8082C27.9542 12.3218 28.0272 12.2473 28.1003 12.1728L32.1161 6.2846C32.3352 6.061 32.1892 5.8374 32.0431 5.8374Z" fill="#263B80"/>
<path d="M44.8939 3.67587L43.8717 10.3839C43.8717 10.533 43.9447 10.6075 44.0908 10.6075H45.113C45.259 10.6075 45.405 10.4584 45.4781 10.3094L46.5003 3.7504C46.5003 3.60133 46.4273 3.5268 46.2812 3.5268H45.113C45.04 3.45226 44.9669 3.5268 44.8939 3.67587Z" fill="#139AD6"/>
<path d="M8.89707 1.21618C8.38596 0.619911 7.43675 0.321777 6.12247 0.321777H2.47167C2.25262 0.321777 2.03358 0.545377 1.96056 0.768978L0.500244 10.5329C0.500244 10.7565 0.646276 10.9056 0.792308 10.9056H3.0558L3.63993 7.25341V7.40247C3.71294 7.17887 3.93199 6.95527 4.15104 6.95527H5.24628C7.36374 6.95527 8.97008 6.06087 9.4812 3.60126C9.4812 3.52672 9.4812 3.45219 9.4812 3.37766C9.40818 3.37766 9.40818 3.37766 9.4812 3.37766C9.55421 2.40872 9.40818 1.81245 8.89707 1.21618Z" fill="#263B80"/>
<path d="M9.40822 3.37793C9.40822 3.45246 9.40822 3.527 9.40822 3.60153C8.89711 6.13568 7.29076 6.95554 5.1733 6.95554H4.07806C3.85901 6.95554 3.63997 7.17915 3.56695 7.40275L2.83679 11.9493C2.83679 12.0984 2.90981 12.2474 3.12886 12.2474H5.02727C5.24632 12.2474 5.46536 12.0984 5.46536 11.8748V11.8002L5.83044 9.48969V9.34062C5.83044 9.11702 6.04949 8.96795 6.26854 8.96795H6.5606C8.386 8.96795 9.84632 8.22262 10.2114 5.98661C10.3574 5.0922 10.2844 4.27233 9.84632 3.7506C9.7733 3.60153 9.62727 3.45246 9.40822 3.37793Z" fill="#139AD6"/>
<path d="M8.8971 3.15378C8.82408 3.15378 8.75106 3.07924 8.67805 3.07924C8.60503 3.07924 8.53202 3.07924 8.459 3.00471C8.16694 2.93017 7.87487 2.93018 7.50979 2.93018H4.66218C4.58916 2.93018 4.51614 2.93017 4.44313 3.00471C4.2971 3.07924 4.22408 3.22831 4.22408 3.37738L3.63995 7.25313V7.40219C3.71297 7.17859 3.93202 6.95499 4.15106 6.95499H5.2463C7.36376 6.95499 8.97011 6.06059 9.48122 3.60098C9.48122 3.52644 9.48122 3.45191 9.55424 3.37738C9.40821 3.30284 9.33519 3.22831 9.18916 3.22831C8.97011 3.15378 8.97011 3.15378 8.8971 3.15378Z" fill="#232C65"/>
</svg>
