<svg width="38" height="13" viewBox="0 0 38 13" fill="none" xmlns="http://www.w3.org/2000/svg">
<path d="M0.917986 7.88154C1.21637 8.06154 1.81315 8.30154 2.35024 8.24154C2.82766 8.24154 3.12605 8.00154 3.12605 7.64154C3.12605 7.34154 2.94702 7.10154 2.40992 6.80154C1.75347 6.44154 1.27605 5.90154 1.27605 5.18154C1.27605 3.92154 2.35024 3.08154 3.84218 3.08154C4.49863 3.08154 5.03573 3.20154 5.33412 3.38154L4.91637 4.64154C4.67766 4.52154 4.25992 4.40154 3.84218 4.40154C3.36476 4.40154 3.0067 4.64154 3.0067 5.00154C3.0067 5.30154 3.24541 5.48154 3.66315 5.72154C4.3196 6.14154 4.91637 6.68154 4.91637 7.40154C4.91637 8.78154 3.7825 9.62154 2.23089 9.56154C1.51476 9.56154 0.858309 9.38154 0.500244 9.14154L0.917986 7.88154Z" fill="#B4E52C"/>
<path d="M5.27448 9.32178L7.00512 0.321777H8.73577L8.07931 3.92178V3.98178C8.55673 3.44178 9.15351 3.08178 9.92931 3.08178C10.8245 3.08178 11.3616 3.68178 11.3616 4.70178C11.3616 5.00178 11.3019 5.42178 11.2422 5.78178L10.5858 9.32178H8.85512L9.51157 5.84178C9.57125 5.60178 9.57125 5.36178 9.57125 5.12178C9.57125 4.76178 9.39222 4.46178 9.03415 4.46178C8.49706 4.46178 7.90028 5.12178 7.66157 6.26178L7.0648 9.26178H5.27448V9.32178Z" fill="#B4E52C"/>
<path d="M17.7469 5.54154C17.7469 7.70154 16.3744 9.56154 14.2857 9.56154C12.734 9.56154 11.8986 8.48154 11.8986 7.10154C11.8986 4.94154 13.2711 3.08154 15.4195 3.08154C16.9711 3.08154 17.7469 4.28154 17.7469 5.54154ZM13.6292 7.10154C13.6292 7.76154 13.8679 8.24154 14.4647 8.24154C15.4195 8.24154 15.8969 6.56154 15.8969 5.48154C15.8969 4.94154 15.7179 4.40154 15.0615 4.40154C14.1663 4.46154 13.6292 6.08154 13.6292 7.10154Z" fill="#B4E52C"/>
<path d="M17.2696 11.7224L18.4631 5.4824C18.5825 4.7624 18.7615 3.9224 18.8212 3.3224H20.3728L20.2535 3.9224C20.7309 3.3224 21.3873 2.9624 22.1035 2.9624C23.3567 2.9624 23.8938 4.1024 23.8938 5.2424C23.8938 7.4024 22.5212 9.5024 20.4922 9.5024C20.1938 9.5624 19.776 9.3224 19.597 9.3224H19.5373L19.0599 11.7224H17.2696ZM19.776 8.0024C19.9551 8.1824 20.1938 8.2424 20.4922 8.2424C21.447 8.2424 22.1631 6.6224 22.1631 5.4824C22.1631 5.0024 21.9841 4.5224 21.447 4.5224C20.8502 4.5224 20.2535 5.2424 20.0744 6.3224L19.776 8.0024Z" fill="#B4E52C"/>
<path d="M24.0728 9.32256L25.2664 3.32256H27.0567L25.8631 9.32256H24.0728ZM26.3406 2.72256C25.8631 2.72256 25.5051 2.24256 25.5051 1.70256C25.5051 1.10256 25.9228 0.622559 26.5196 0.622559C27.0567 0.622559 27.4147 1.10256 27.4147 1.58256C27.3551 2.24256 26.8777 2.72256 26.3406 2.72256Z" fill="#B4E52C"/>
<path d="M27.3551 9.32178L28.3099 4.52178H27.4745L27.7132 3.32178H28.5487L28.6083 2.96178C28.7277 2.24178 29.0261 1.46178 29.6228 0.921777C30.1003 0.501777 30.697 0.321777 31.3535 0.321777C31.7712 0.321777 32.1293 0.381778 32.3083 0.441778L31.9503 1.82178C31.7712 1.76178 31.5922 1.70178 31.4132 1.70178C30.8164 1.70178 30.4583 2.30178 30.3986 2.90178L30.2196 3.32178H31.4132L31.1745 4.52178H29.9809L29.0261 9.32178H27.3551Z" fill="#B4E52C"/>
<path d="M33.6212 3.32178L33.9196 6.08178C33.9792 6.68178 34.0389 6.92178 34.0986 7.52178C34.218 6.92178 34.3373 6.74178 34.6357 6.08178L35.7099 3.32178H37.5002L35.3518 7.88178C34.576 9.44178 33.8599 10.5818 33.0244 11.3618C32.4276 11.9618 31.6518 12.2018 31.2938 12.3218L30.8163 10.8218C31.1147 10.7018 31.4728 10.5818 31.8309 10.3418C32.2486 10.0418 32.6067 9.68178 32.7857 9.26178C32.8454 9.20178 32.8454 9.14178 32.8454 9.02178L31.7712 3.32178H33.6212Z" fill="#B4E52C"/>
<path d="M3.84218 3.08191C4.49863 3.08191 5.03573 3.20191 5.33412 3.38191L4.91637 4.64191C4.67766 4.52191 4.25992 4.40191 3.84218 4.40191C3.36476 4.40191 3.0067 4.64191 3.0067 5.00191C3.0067 5.30191 3.24541 5.48191 3.66315 5.72191C4.3196 6.14191 4.91637 6.68191 4.91637 7.40191C4.91637 8.78191 3.7825 9.62191 2.23089 9.56191C1.51476 9.56191 0.858309 9.38191 0.500244 9.14191L0.917986 7.88191C1.21637 8.06191 1.81315 8.30191 2.35024 8.24191C2.82766 8.24191 3.12605 8.00191 3.12605 7.64191C3.12605 7.34191 2.94702 7.10191 2.40992 6.80191C1.75347 6.44191 1.27605 5.90191 1.27605 5.18191" fill="#8BB43F"/>
<path d="M5.27448 9.32189L6.82609 2.18189L8.73577 0.441895L8.07931 3.98189C8.55673 3.44189 9.15351 3.08189 9.92931 3.08189C10.8245 3.08189 11.3616 3.68189 11.3616 4.70189C11.3616 5.00189 11.3019 5.42189 11.2422 5.78189L10.5858 9.32189H8.85512L9.51157 5.84189C9.57125 5.60189 9.57125 5.36189 9.57125 5.12189C9.57125 4.76189 9.39222 4.46189 9.03415 4.46189C8.49706 4.46189 7.90028 5.12189 7.66157 6.26189L7.0648 9.2619H5.27448V9.32189Z" fill="#8BB43F"/>
<path d="M15.3598 3.08203C16.9711 3.08203 17.7469 4.28203 17.7469 5.54203C17.7469 7.70203 16.3744 9.56203 14.2857 9.56203C12.734 9.56203 11.8986 8.48203 11.8986 7.10203L15.3598 3.08203ZM13.6292 7.10203C13.6292 7.76203 13.8679 8.24203 14.4647 8.24203C15.4195 8.24203 15.8969 6.56203 15.8969 5.48203C15.8969 4.94203 15.7179 4.40203 15.0615 4.40203C14.1663 4.46203 13.6292 6.08203 13.6292 7.10203Z" fill="#8BB43F"/>
<path d="M20.4325 3.32191L20.3132 3.92191C20.7906 3.32191 21.447 2.96191 22.1632 2.96191C23.4164 2.96191 23.9535 4.10191 23.9535 5.24191C23.9535 7.40192 22.5809 9.50191 20.5519 9.50191C20.1938 9.56191 19.7761 9.32191 19.597 9.32191H19.5373L19.0599 11.7219H17.3293L18.5228 5.36191L20.4325 3.32191ZM19.7761 8.00191C19.9551 8.18191 20.1938 8.24191 20.4922 8.24191C21.447 8.24191 22.1632 6.62191 22.1632 5.48191C22.1632 5.00191 21.9841 4.52191 21.447 4.52191C20.8503 4.52191 20.2535 5.24191 20.0744 6.32191L19.7761 8.00191Z" fill="#8BB43F"/>
<path d="M24.0728 9.32207L25.2664 4.76207L27.0567 3.32207L25.8631 9.32207H24.0728ZM26.5196 0.62207C27.0567 0.62207 27.4147 1.04207 27.4147 1.58207C27.4147 2.24207 26.9373 2.72207 26.4002 2.72207C25.9228 2.72207 25.5648 2.24207 25.5648 1.70207" fill="#8BB43F"/>
<path d="M31.2938 0.321777C31.7116 0.321777 32.0696 0.381777 32.2487 0.501777L31.8906 1.88178C31.7116 1.82178 31.5325 1.76178 31.3535 1.76178C30.7567 1.76178 30.3987 2.36178 30.339 2.96178L30.2196 3.32178H31.4132L31.1745 4.52178H29.9809L29.0261 9.32178H27.3551L28.3099 4.52178H27.4745L27.7132 3.32178H28.5487L28.6083 2.96178" fill="#8BB43F"/>
<path d="M33.6212 3.32178L33.9196 6.02178C33.9792 6.62178 34.0389 6.92178 34.0986 7.52178C34.218 6.92178 34.3373 6.74178 34.6357 6.08178L35.7099 3.32178H37.5002L35.3518 7.88178C34.576 9.44178 33.8599 10.5818 33.0244 11.3618C32.4276 11.9618 31.6518 12.2018 31.2938 12.3218L30.8163 10.8218C31.1147 10.7018 31.4728 10.5818 31.8309 10.3418C32.2486 10.0418 32.6067 9.68178 32.7857 9.26178C32.8454 9.20178 32.8454 9.08178 32.8454 8.96178L32.4276 4.64178L33.6212 3.32178Z" fill="#8BB43F"/>
</svg>
