<svg width="25" height="25" viewBox="0 0 25 25" fill="none" xmlns="http://www.w3.org/2000/svg">
<path d="M18.5002 7.32738C17.9779 7.70382 17.3996 7.99174 16.7875 8.18005C16.459 7.79413 16.0224 7.52059 15.5368 7.39645C15.0512 7.2723 14.54 7.30353 14.0723 7.48591C13.6046 7.66829 13.203 7.99302 12.9219 8.41619C12.6407 8.83935 12.4935 9.34053 12.5002 9.85195V10.4092C11.5417 10.4346 10.5918 10.2174 9.73534 9.77696C8.87883 9.33649 8.14224 8.68643 7.59115 7.88468C7.59115 7.88468 5.40934 12.9004 10.3184 15.1296C9.19508 15.9087 7.85688 16.2993 6.50024 16.2442C11.4093 19.0307 17.4093 16.2442 17.4093 9.83523C17.4088 9.67999 17.3942 9.52514 17.3657 9.37267C17.9224 8.81174 18.3152 8.10354 18.5002 7.32738V7.32738Z" stroke="#4F5255" stroke-linecap="round" stroke-linejoin="round"/>
</svg>
