<svg width="40" height="13" viewBox="0 0 40 13" fill="none" xmlns="http://www.w3.org/2000/svg">
<path d="M14.8 12.0074L16.781 0.69873H19.8762L17.9572 12.0074H14.8Z" fill="#3C58BF"/>
<path d="M14.8 12.0074L17.3381 0.69873H19.8762L17.9572 12.0074H14.8Z" fill="#293688"/>
<path d="M29.1618 0.824384C28.5428 0.573081 27.5523 0.321777 26.3142 0.321777C23.219 0.321777 20.9905 1.89242 20.9905 4.15416C20.9905 5.85046 22.5381 6.73002 23.7762 7.29545C25.0142 7.86089 25.3857 8.23784 25.3857 8.74045C25.3857 9.49436 24.3952 9.87132 23.5285 9.87132C22.2905 9.87132 21.6095 9.68284 20.5571 9.24306L20.1238 9.05458L19.6905 11.6304C20.4333 11.9446 21.7952 12.2587 23.219 12.2587C26.4999 12.2587 28.6666 10.6881 28.6666 8.30067C28.6666 6.98132 27.8618 5.97611 26.0047 5.15937C24.8904 4.59394 24.2095 4.27981 24.2095 3.71438C24.2095 3.21177 24.7666 2.70916 26.0047 2.70916C27.0571 2.70916 27.7999 2.89764 28.357 3.14894L28.6666 3.27459L29.1618 0.824384Z" fill="#3C58BF"/>
<path d="M29.1618 0.824384C28.5428 0.573081 27.5523 0.321777 26.3142 0.321777C23.219 0.321777 21.5476 1.89242 21.5476 4.15416C21.5476 5.85046 22.5381 6.73002 23.7762 7.29545C25.0142 7.86089 25.3857 8.23784 25.3857 8.74045C25.3857 9.49436 24.3952 9.87132 23.5285 9.87132C22.2905 9.87132 21.6095 9.68284 20.5571 9.24306L20.1238 9.05458L19.6905 11.6304C20.4333 11.9446 21.7952 12.2587 23.219 12.2587C26.4999 12.2587 28.6666 10.6881 28.6666 8.30067C28.6666 6.98132 27.8618 5.97611 26.0047 5.15937C24.8904 4.59394 24.2095 4.27981 24.2095 3.71438C24.2095 3.21177 24.7666 2.70916 26.0047 2.70916C27.0571 2.70916 27.7999 2.89764 28.357 3.14894L28.6666 3.27459L29.1618 0.824384Z" fill="#293688"/>
<path d="M34.4855 0.69873C33.7427 0.69873 33.1855 0.761557 32.876 1.51547L28.2332 12.0074H31.576L32.1951 10.1226H36.1569L36.5284 12.0074H39.4997L36.8998 0.69873H34.4855ZM33.0617 8.23784C33.2474 7.67241 34.2998 4.90807 34.2998 4.90807C34.2998 4.90807 34.5474 4.21698 34.7331 3.7772L34.9188 4.84524C34.9188 4.84524 35.5379 7.67241 35.6617 8.30067H33.0617V8.23784Z" fill="#3C58BF"/>
<path d="M35.2284 0.69873C34.4855 0.69873 33.9284 0.761557 33.6189 1.51547L28.2332 12.0074H31.576L32.1951 10.1226H36.1569L36.5284 12.0074H39.4997L36.8998 0.69873H35.2284ZM33.0617 8.23784C33.3093 7.60958 34.2998 4.90807 34.2998 4.90807C34.2998 4.90807 34.5474 4.21698 34.7331 3.7772L34.9188 4.84524C34.9188 4.84524 35.5379 7.67241 35.6617 8.30067H33.0617V8.23784Z" fill="#293688"/>
<path d="M9.1049 8.61496L8.79538 6.98148C8.23824 5.09671 6.44302 3.02345 4.4621 2.01824L7.24778 12.0704H10.5906L15.6048 0.761719H12.262L9.1049 8.61496Z" fill="#3C58BF"/>
<path d="M9.1049 8.61496L8.79538 6.98148C8.23824 5.09671 6.44302 3.02345 4.4621 2.01824L7.24778 12.0704H10.5906L15.6048 0.761719H12.881L9.1049 8.61496Z" fill="#293688"/>
<path d="M0.500244 0.69873L1.05738 0.824383C5.01924 1.76677 7.74301 4.15416 8.79538 6.98132L7.68111 1.64112C7.4954 0.887208 6.93826 0.69873 6.25732 0.69873H0.500244Z" fill="#FFBC00"/>
<path d="M0.500244 0.69873C4.4621 1.64112 7.74301 4.09133 8.79538 6.9185L7.74301 2.45786C7.5573 1.70395 6.93826 1.26416 6.25732 1.26416L0.500244 0.69873Z" fill="#F7981D"/>
<path d="M0.500244 0.69873C4.4621 1.64112 7.74301 4.09133 8.79538 6.9185L8.05253 4.46828C7.86682 3.71437 7.6192 2.96046 6.75255 2.64633L0.500244 0.69873Z" fill="#ED7C00"/>
<path d="M12.2001 8.23718L10.0954 6.1011L9.10494 8.48848L8.85733 6.91784C8.30019 5.03306 6.50498 2.9598 4.52405 1.95459L7.30973 12.0067H10.6525L12.2001 8.23718Z" fill="#051244"/>
<path d="M17.9572 11.9445L15.2953 9.18018L14.8 11.9445H17.9572Z" fill="#051244"/>
<path d="M25.0761 8.04932C25.3237 8.30062 25.4475 8.4891 25.3856 8.7404C25.3856 9.49431 24.3951 9.87127 23.5285 9.87127C22.2904 9.87127 21.6095 9.68279 20.5571 9.24301L20.1238 9.05453L19.6904 11.6304C20.4333 11.9445 21.7952 12.2587 23.219 12.2587C25.1999 12.2587 26.8094 11.6932 27.7379 10.688L25.0761 8.04932Z" fill="#051244"/>
<path d="M28.6666 12.007H31.5761L32.1951 10.1223H36.1569L36.5284 12.007H39.4998L38.4474 7.42076L34.7332 3.77686L34.9189 4.78207C34.9189 4.78207 35.5379 7.60923 35.6617 8.23749H33.0617C33.3094 7.60923 34.2998 4.90772 34.2998 4.90772C34.2998 4.90772 34.5474 4.21664 34.7332 3.77686" fill="#051244"/>
</svg>
