<svg width="25" height="25" viewBox="0 0 25 25" fill="none" xmlns="http://www.w3.org/2000/svg">
<path d="M18.249 9.57404C18.1842 9.32846 18.0523 9.10344 17.8665 8.92173C17.6807 8.74001 17.4477 8.60803 17.1909 8.53911C16.2528 8.32178 12.5002 8.32178 12.5002 8.32178C12.5002 8.32178 8.74771 8.32178 7.80958 8.55981C7.55282 8.62873 7.31977 8.76071 7.13398 8.94243C6.9482 9.12414 6.81624 9.34916 6.75145 9.59474C6.57976 10.498 6.49578 11.4143 6.50056 12.3321C6.49444 13.2569 6.57843 14.1801 6.75145 15.0902C6.82288 15.3282 6.95779 15.5446 7.14315 15.7187C7.3285 15.8927 7.55804 16.0184 7.80958 16.0837C8.74771 16.3218 12.5002 16.3218 12.5002 16.3218C12.5002 16.3218 16.2528 16.3218 17.1909 16.0837C17.4477 16.0148 17.6807 15.8828 17.8665 15.7011C18.0523 15.5194 18.1842 15.2944 18.249 15.0488C18.4194 14.1524 18.5034 13.243 18.4999 12.3321C18.5061 11.4074 18.4221 10.4841 18.249 9.57404V9.57404Z" stroke="#4F5255" stroke-linecap="round" stroke-linejoin="round"/>
<path d="M11.273 14.0241L14.4092 12.332L11.273 10.6399V14.0241Z" stroke="#4F5255" stroke-linecap="round" stroke-linejoin="round"/>
</svg>
